<?xml version="1.0" encoding="UTF-8" standalone="no"?>
<!-- Created with Inkscape (http://www.inkscape.org/) -->
<svg
   xmlns:dc="http://purl.org/dc/elements/1.1/"
   xmlns:cc="http://web.resource.org/cc/"
   xmlns:rdf="http://www.w3.org/1999/02/22-rdf-syntax-ns#"
   xmlns:svg="http://www.w3.org/2000/svg"
   xmlns="http://www.w3.org/2000/svg"
   xmlns:sodipodi="http://inkscape.sourceforge.net/DTD/sodipodi-0.dtd"
   xmlns:inkscape="http://www.inkscape.org/namespaces/inkscape"
   width="450.00000pt"
   height="310.00000pt"
   id="svg2"
   sodipodi:version="0.32"
   inkscape:version="0.42.2"
   sodipodi:docbase="/home/david"
   sodipodi:docname="cityscape.svg">
  <defs
     id="defs4" />
  <sodipodi:namedview
     id="base"
     pagecolor="#ffffff"
     bordercolor="#666666"
     borderopacity="1.0"
     inkscape:pageopacity="0.0"
     inkscape:pageshadow="2"
     inkscape:zoom="1.0000000"
     inkscape:cx="430.97572"
     inkscape:cy="163.75457"
     inkscape:document-units="px"
     inkscape:current-layer="layer1"
     inkscape:window-width="1024"
     inkscape:window-height="693"
     inkscape:window-x="0"
     inkscape:window-y="25" />
  <metadata
     id="metadata7">
    <rdf:RDF>
      <cc:Work
         rdf:about="">
        <dc:format>image/svg+xml</dc:format>
        <dc:type
           rdf:resource="http://purl.org/dc/dcmitype/StillImage" />
      </cc:Work>
    </rdf:RDF>
  </metadata>
  <g
     inkscape:label="Layer 1"
     inkscape:groupmode="layer"
     id="layer1"
     style="display:inline">
    <g
       id="g21820"
       transform="translate(-71.00000,-106.0000)">
      <g
         id="g12298">
        <path
           style="fill:#6daf6a;fill-opacity:1.0000000;fill-rule:evenodd;stroke:none;stroke-width:1.0000000px;stroke-linecap:butt;stroke-linejoin:miter;stroke-opacity:1.0000000;display:inline"
           d="M 85.218750,219.89343 L 86.000000,229.36218 L 292.00000,478.86218 L 292.15089,466.05022 L 85.218750,219.89343 z "
           id="path2825"
           sodipodi:nodetypes="ccccc" />
        <path
           style="fill:#6aab67;fill-opacity:1.0000000;fill-rule:evenodd;stroke:none;stroke-width:1.0000000px;stroke-linecap:butt;stroke-linejoin:miter;stroke-opacity:1.0000000"
           d="M 85.209210,219.92346 L 292.14286,468.07647 L 622.14286,271.64790 L 370.63506,125.34931 L 85.209210,219.92346 z "
           id="path1364"
           sodipodi:nodetypes="ccccc" />
        <path
           style="fill:#385936;fill-opacity:1.0000000;fill-rule:evenodd;stroke:none;stroke-width:1.0000000px;stroke-linecap:butt;stroke-linejoin:miter;stroke-opacity:1.0000000;display:inline"
           d="M 292.08877,467.98040 L 291.94584,478.84399 L 620.86129,279.65150 L 621.74889,271.66220 L 292.08877,467.98040 z "
           id="path2096"
           sodipodi:nodetypes="ccccc" />
      </g>
      <g
         id="g12308">
        <path
           style="fill:#5c5c38;fill-opacity:1.0000000;fill-rule:evenodd;stroke:none;stroke-width:1.0000000px;stroke-linecap:butt;stroke-linejoin:miter;stroke-opacity:1.0000000;display:inline"
           d="M 348.07331,228.27342 L 349.48753,185.44927 L 444.31306,161.87547 L 441.76496,189.16158 L 348.07331,228.27342 z "
           id="path5011"
           sodipodi:nodetypes="ccccc" />
        <path
           style="fill:#baba71;fill-opacity:1.0000000;fill-rule:evenodd;stroke:none;stroke-width:1.0000000px;stroke-linecap:butt;stroke-linejoin:miter;stroke-opacity:1.0000000"
           d="M 276.33231,147.60833 L 276.47875,175.01944 L 348.07331,228.22923 L 349.13397,192.34356 L 276.33231,147.60833 z "
           id="path4283"
           sodipodi:nodetypes="ccccc" />
        <path
           style="fill:#94945a;fill-opacity:1.0000000;fill-rule:evenodd;stroke:none;stroke-width:1.0000000px;stroke-linecap:butt;stroke-linejoin:miter;stroke-opacity:1.0000000;display:inline"
           d="M 276.25000,147.61218 L 349.00000,198.36218 L 444.50000,161.86218 L 368.00000,118.86218 L 276.25000,147.61218 z "
           id="path3554" />
      </g>
      <g
         id="g12313">
        <path
           style="fill:#7b72bc;fill-opacity:1.0000000;fill-rule:evenodd;stroke:none;stroke-width:1.0000000px;stroke-linecap:butt;stroke-linejoin:miter;stroke-opacity:1.0000000"
           d="M 376.93750,222.54968 L 375.25000,248.86218 L 472.25000,320.61218 L 480.06250,279.29968 L 376.93750,222.54968 z "
           id="path6469"
           sodipodi:nodetypes="ccccc" />
        <path
           style="fill:#3b375a;fill-opacity:1.0000000;fill-rule:evenodd;stroke:none;stroke-width:1.0000000px;stroke-linecap:butt;stroke-linejoin:miter;stroke-opacity:1.0000000"
           d="M 472.25000,320.67468 L 481.00000,272.86218 L 575.72097,241.56799 L 569.75000,267.11218 L 472.25000,320.67468 z "
           id="path7197"
           sodipodi:nodetypes="ccccc" />
        <path
           style="fill:#605a94;fill-opacity:1.0000000;fill-rule:evenodd;stroke:none;stroke-width:1.0000000px;stroke-linecap:butt;stroke-linejoin:miter;stroke-opacity:1.0000000;display:inline"
           d="M 377.00000,222.61218 L 477.25000,294.11218 L 575.75000,241.61218 L 473.25000,182.86218 L 377.00000,222.61218 z "
           id="path5740" />
      </g>
      <g
         id="g12303">
        <path
           style="fill:#3d395e;fill-opacity:1.0000000;fill-rule:evenodd;stroke:none;stroke-width:1.0000000px;stroke-linecap:butt;stroke-linejoin:miter;stroke-opacity:1.0000000"
           d="M 192.59821,291.60368 L 188.53235,256.86705 L 312.98314,221.57801 L 313.07153,242.19459 L 192.59821,291.60368 z "
           id="path8654"
           sodipodi:nodetypes="ccccc" />
        <path
           style="fill:#776eb6;fill-opacity:1.0000000;fill-rule:evenodd;stroke:none;stroke-width:1.0000000px;stroke-linecap:butt;stroke-linejoin:miter;stroke-opacity:1.0000000;display:inline"
           d="M 131.34508,224.69369 L 128.50639,204.57240 L 188.39976,255.85058 L 192.59821,291.55948 L 131.34508,224.69369 z "
           id="path9382"
           sodipodi:nodetypes="ccccc" />
        <path
           style="fill:#6961a1;fill-opacity:1.0000000;fill-rule:evenodd;stroke:none;stroke-width:1.0000000px;stroke-linecap:butt;stroke-linejoin:miter;stroke-opacity:1.0000000;display:inline"
           d="M 128.50000,204.61218 L 190.00000,269.86218 L 313.00000,221.61218 L 241.50000,165.86218 L 128.50000,204.61218 z "
           id="path7925" />
      </g>
      <g
         id="g12318">
        <path
           style="fill:#b66e76;fill-opacity:1.0000000;fill-rule:evenodd;stroke:none;stroke-width:1.0000000px;stroke-linecap:butt;stroke-linejoin:miter;stroke-opacity:1.0000000;display:inline"
           d="M 216.25000,316.11218 L 305.29297,412.95593 L 305.75000,365.36218 L 215.32031,300.35046 L 216.25000,316.11218 z "
           id="path11569"
           sodipodi:nodetypes="ccccc" />
        <path
           style="fill:#5a373b;fill-opacity:1.0000000;fill-rule:evenodd;stroke:none;stroke-width:1.0000000px;stroke-linecap:butt;stroke-linejoin:miter;stroke-opacity:1.0000000;display:inline"
           d="M 435.75455,340.83598 L 305.29335,412.96087 L 304.76302,376.54488 L 438.74318,323.32404 L 435.75455,340.83598 z "
           id="path10840"
           sodipodi:nodetypes="ccccc" />
        <path
           style="fill:#a3636b;fill-opacity:1.0000000;fill-rule:evenodd;stroke:none;stroke-width:1.0000000px;stroke-linecap:butt;stroke-linejoin:miter;stroke-opacity:1.0000000;display:inline"
           d="M 215.31402,300.35412 L 305.11658,395.45998 L 438.75976,323.33509 L 340.11836,246.26045 L 215.31402,300.35412 z "
           id="path10111" />
      </g>
      <g
         id="g14509">
        <path
           style="fill:#b9b870;fill-opacity:1.0000000;fill-rule:evenodd;stroke:none;stroke-width:1.0000000px;stroke-linecap:butt;stroke-linejoin:miter;stroke-opacity:1.0000000;display:inline"
           d="M 147.25499,204.54115 C 147.78532,205.24826 198.17336,255.26232 198.17740,255.26825 C 198.17755,255.28216 200.99510,222.92593 200.99510,222.92593 L 145.49205,187.39772 L 147.25499,204.54115 z "
           id="path13780"
           sodipodi:nodetypes="ccccc" />
        <path
           style="fill:#5f5f3a;fill-opacity:1.0000000;fill-rule:evenodd;stroke:none;stroke-width:1.0000000px;stroke-linecap:butt;stroke-linejoin:miter;stroke-opacity:1.0000000"
           d="M 240.41631,239.01261 L 198.16668,255.27606 L 195.11728,227.52212 L 239.34101,221.68260 L 240.41631,239.01261 z "
           id="path13052"
           sodipodi:nodetypes="ccccc" />
        <path
           style="fill:#a0a061;fill-opacity:1.0000000;fill-rule:evenodd;stroke:none;stroke-width:1.0000000px;stroke-linecap:butt;stroke-linejoin:miter;stroke-opacity:1.0000000;display:inline"
           d="M 145.48722,187.39381 C 146.54788,187.04026 185.26198,174.84267 185.26198,174.84267 L 239.35565,221.68849 L 196.22213,237.42162 L 145.48722,187.39381 z "
           id="path12323" />
      </g>
      <g
         id="g16701">
        <path
           style="fill:#3f663d;fill-opacity:1.0000000;fill-rule:evenodd;stroke:none;stroke-width:1.0000000px;stroke-linecap:butt;stroke-linejoin:miter;stroke-opacity:1.0000000;display:inline"
           d="M 259.87121,185.50484 L 226.26172,197.64734 L 225.43750,183.86218 L 259.84766,179.79187 L 259.87121,185.50484 z "
           id="path15972"
           sodipodi:nodetypes="ccccc" />
        <path
           style="fill:#74ba70;fill-opacity:1.0000000;fill-rule:evenodd;stroke:none;stroke-width:1.0000000px;stroke-linecap:butt;stroke-linejoin:miter;stroke-opacity:1.0000000;display:inline"
           d="M 206.91712,181.20663 L 226.27417,197.64686 L 226.34647,182.03873 L 207.70427,175.90379 L 206.91712,181.20663 z "
           id="path15243"
           sodipodi:nodetypes="ccccc" />
        <path
           style="fill:#619b5e;fill-opacity:1.0000000;fill-rule:evenodd;stroke:none;stroke-width:1.0000000px;stroke-linecap:butt;stroke-linejoin:miter;stroke-opacity:1.0000000;display:inline"
           d="M 207.71262,175.90333 C 209.65716,175.54977 240.06275,165.03156 240.06275,165.03156 L 259.86174,179.79241 L 226.27417,191.99001 L 207.71262,175.90333 z "
           id="path14514" />
      </g>
      <g
         id="g20353">
        <path
           style="fill:#385936;fill-opacity:1.0000000;fill-rule:evenodd;stroke:none;stroke-width:1.0000000px;stroke-linecap:butt;stroke-linejoin:miter;stroke-opacity:1.0000000;display:inline"
           d="M 411.88970,311.49105 L 374.87061,330.98237 L 372.20333,315.55692 L 412.49325,305.23356 L 411.88970,311.49105 z "
           id="path17438"
           sodipodi:nodetypes="ccccc" />
        <path
           style="fill:#71b66e;fill-opacity:1.0000000;fill-rule:evenodd;stroke:none;stroke-width:1.0000000px;stroke-linecap:butt;stroke-linejoin:miter;stroke-opacity:1.0000000;display:inline"
           d="M 343.92578,304.34265 L 374.87500,330.98718 L 374.93750,315.54968 L 344.12891,297.74109 L 343.92578,304.34265 z "
           id="path17435"
           sodipodi:nodetypes="ccccc" />
        <path
           style="fill:#619c5e;fill-opacity:1.0000000;fill-rule:evenodd;stroke:none;stroke-width:1.0000000px;stroke-linecap:butt;stroke-linejoin:miter;stroke-opacity:1.0000000;display:inline"
           d="M 344.12500,297.73718 L 374.87500,323.98718 L 412.50000,305.23718 L 381.00000,279.98718 L 344.12500,297.73718 z "
           id="path16706" />
      </g>
      <g
         id="g21087">
        <path
           style="fill:#673e43;fill-opacity:1.0000000;fill-rule:evenodd;stroke:none;stroke-width:1.0000000px;stroke-linecap:butt;stroke-linejoin:miter;stroke-opacity:1.0000000;display:inline"
           d="M 385.90353,140.45960 C 385.46158,140.72476 322.97102,162.73346 322.97102,162.73346 L 319.87743,141.60865 L 386.36592,133.73183 L 385.90353,140.45960 z "
           id="path20358"
           sodipodi:nodetypes="ccccc" />
        <path
           style="fill:#bd737b;fill-opacity:1.0000000;fill-rule:evenodd;stroke:none;stroke-width:1.0000000px;stroke-linecap:butt;stroke-linejoin:miter;stroke-opacity:1.0000000;display:inline"
           d="M 299.87500,147.36218 L 323.00000,162.73718 L 323.81250,147.23718 L 300.00781,139.97937 L 299.87500,147.36218 z "
           id="path19624"
           sodipodi:nodetypes="ccccc" />
        <path
           style="fill:#935960;fill-opacity:1.0000000;fill-rule:evenodd;stroke:none;stroke-width:1.0000000px;stroke-linecap:butt;stroke-linejoin:miter;stroke-opacity:1.0000000;display:inline"
           d="M 300.00000,139.98718 L 323.37500,155.11218 L 386.37500,133.73718 L 362.12500,119.98718 L 300.00000,139.98718 z "
           id="path18167" />
      </g>
      <path
         sodipodi:nodetypes="ccccccccccccccccccccccccccccc"
         id="path21092"
         d="M 291.66010,479.60569 L 622.04686,280.36947 L 622.79686,270.92708 L 576.33492,244.01413 L 577.08492,240.89649 L 473.01154,181.62084 L 471.22601,182.66006 L 444.93806,167.72871 L 445.43806,161.11474 L 368.11342,117.44202 L 363.24578,119.35255 L 361.87446,118.93834 L 299.27038,138.90522 L 298.64538,139.85865 L 275.68586,147.09761 L 275.56086,156.79000 L 244.15895,166.52160 L 240.00209,163.73607 L 207.38939,174.79977 L 206.63939,176.75320 L 194.24726,181.66373 L 185.76198,173.88556 L 144.70689,186.82059 L 145.62110,198.00930 L 128.02554,204.16615 L 127.77554,205.11958 L 83.809921,218.92961 L 84.852814,229.96146 L 291.66010,479.60569 z "
         style="fill:none;fill-opacity:0.75000000;fill-rule:evenodd;stroke:#000000;stroke-width:2.5000000;stroke-linecap:butt;stroke-linejoin:round;stroke-miterlimit:4.0000000;stroke-dasharray:none;stroke-opacity:1.0000000" />
    </g>
  </g>
</svg>
